<svg width="572" height="572" viewBox="0 0 572 572" fill="none" xmlns="http://www.w3.org/2000/svg">
<g clip-path="url(#clip0_143_9)">
<path d="M444.888 572H381.333V508.445H317.778V572H254.222V508.445H190.667V572H127.111V444.888H444.888V572ZM127.111 444.888H0V381.333H63.5555V317.778H0V254.222H63.5555V190.667H0V127.111H127.111V444.888ZM572 190.667H508.445V254.222H572V317.778H508.445V381.333H572V444.888H444.888V127.111H572V190.667ZM190.667 63.5555H254.222V0H317.778V63.5555H381.333V0H444.888V127.111H127.111V0H190.667V63.5555Z" fill="white"/>
<path d="M199.315 277.4C198.487 277.887 197.85 277.541 197.257 277.246C187.078 272.208 175.072 277.891 171.337 288.055C169.528 292.979 169.811 298.019 171.896 302.516C175.438 310.154 182.933 314.411 191.368 313.111C195.843 312.423 199.878 310.188 203.611 307.52C212.101 301.449 218.108 293.447 221.759 283.761C224.539 276.387 225.625 268.76 224.342 260.817C223.465 255.379 221.719 250.309 219.411 245.371C219.187 244.889 218.651 244.213 219.165 243.821C219.668 243.437 220.303 243.93 220.75 244.362C227.826 251.195 235.107 257.852 238.923 267.278C241.476 273.581 241.86 280.064 240.901 286.717C240.097 292.297 238.262 297.488 235.119 302.166C230.876 308.477 225.074 312.924 218.176 316.02C213.325 318.197 208.231 319.279 202.94 319.023C192.12 318.499 182.374 315.033 173.742 308.342C167.206 303.274 162.204 297.084 158.783 289.597C153.855 278.808 157.699 266.947 169.687 262.717C175.563 260.644 181.475 261.277 186.716 265.089C191.396 268.493 195.089 272.935 199.13 277.01C199.203 277.083 199.225 277.207 199.315 277.4Z" fill="white"/>
<path d="M149.645 293.974C149.625 302.681 151.688 310.128 155.31 317.186C155.564 317.683 156.34 318.234 155.646 318.817C154.816 319.514 154.448 318.511 154.044 318.101C149.171 313.135 143.98 308.471 139.889 302.77C129.333 288.064 131.781 268.75 141.326 257.373C151.939 244.72 166.719 239.789 183.915 245.13C190.461 247.163 196.532 250.124 201.779 254.573C209.019 260.713 214.891 267.87 217.303 277.276C220.029 287.907 212.312 298.878 201.375 300.213C194.88 301.005 189.329 299.105 184.705 294.485C181.796 291.578 178.881 288.677 175.991 285.752C175.673 285.43 174.925 285.171 175.307 284.564C175.788 283.798 176.304 284.556 176.73 284.757C187.93 290.036 200.674 284.071 203.715 272.099C204.843 267.655 204.234 263.372 202.3 259.281C199.025 252.354 193.274 248.982 185.837 248.711C180.96 248.534 176.634 250.787 172.653 253.391C161.03 261 153.869 271.758 150.676 285.213C149.935 288.333 149.699 291.516 149.647 293.978L149.645 293.974Z" fill="white"/>
<path d="M294.781 250.75H308.797V295.844C308.797 301.094 307.672 305.516 305.422 309.109C303.203 312.703 300.125 315.406 296.188 317.219C292.281 319.031 287.781 319.938 282.688 319.938C277.594 319.938 273.062 319.031 269.094 317.219C265.156 315.406 262.062 312.703 259.812 309.109C257.594 305.516 256.484 301.094 256.484 295.844V250.75H270.547V295.844C270.547 298.906 271.031 301.406 272 303.344C272.969 305.281 274.359 306.703 276.172 307.609C278.016 308.516 280.188 308.969 282.688 308.969C285.25 308.969 287.422 308.516 289.203 307.609C291.016 306.703 292.391 305.281 293.328 303.344C294.297 301.406 294.781 298.906 294.781 295.844V250.75ZM346.953 294.672H329.562V283.703H346.953C349.641 283.703 351.828 283.266 353.516 282.391C355.203 281.484 356.438 280.234 357.219 278.641C358 277.047 358.391 275.25 358.391 273.25C358.391 271.219 358 269.328 357.219 267.578C356.438 265.828 355.203 264.422 353.516 263.359C351.828 262.297 349.641 261.766 346.953 261.766H334.438V319H320.375V250.75H346.953C352.297 250.75 356.875 251.719 360.688 253.656C364.531 255.562 367.469 258.203 369.5 261.578C371.531 264.953 372.547 268.812 372.547 273.156C372.547 277.562 371.531 281.375 369.5 284.594C367.469 287.812 364.531 290.297 360.688 292.047C356.875 293.797 352.297 294.672 346.953 294.672ZM408.969 289.047H391.438L391.344 279.391H406.062C408.656 279.391 410.781 279.062 412.438 278.406C414.094 277.719 415.328 276.734 416.141 275.453C416.984 274.141 417.406 272.547 417.406 270.672C417.406 268.547 417 266.828 416.188 265.516C415.406 264.203 414.172 263.25 412.484 262.656C410.828 262.062 408.688 261.766 406.062 261.766H396.312V319H382.25V250.75H406.062C410.031 250.75 413.578 251.125 416.703 251.875C419.859 252.625 422.531 253.766 424.719 255.297C426.906 256.828 428.578 258.766 429.734 261.109C430.891 263.422 431.469 266.172 431.469 269.359C431.469 272.172 430.828 274.766 429.547 277.141C428.297 279.516 426.312 281.453 423.594 282.953C420.906 284.453 417.391 285.281 413.047 285.438L408.969 289.047ZM408.359 319H387.594L393.078 308.031H408.359C410.828 308.031 412.844 307.641 414.406 306.859C415.969 306.047 417.125 304.953 417.875 303.578C418.625 302.203 419 300.625 419 298.844C419 296.844 418.656 295.109 417.969 293.641C417.312 292.172 416.25 291.047 414.781 290.266C413.312 289.453 411.375 289.047 408.969 289.047H395.422L395.516 279.391H412.391L415.625 283.188C419.781 283.125 423.125 283.859 425.656 285.391C428.219 286.891 430.078 288.844 431.234 291.25C432.422 293.656 433.016 296.234 433.016 298.984C433.016 303.359 432.062 307.047 430.156 310.047C428.25 313.016 425.453 315.25 421.766 316.75C418.109 318.25 413.641 319 408.359 319Z" fill="white"/>
<path d="M233.064 390.288C230.536 390.288 228.2 389.872 226.056 389.04C223.912 388.176 222.056 386.976 220.488 385.44C218.92 383.904 217.688 382.096 216.792 380.016C215.928 377.936 215.496 375.664 215.496 373.2C215.496 370.736 215.928 368.464 216.792 366.384C217.688 364.304 218.92 362.496 220.488 360.96C222.088 359.424 223.96 358.24 226.104 357.408C228.248 356.544 230.584 356.112 233.112 356.112C235.544 356.112 237.832 356.528 239.976 357.36C242.12 358.16 243.928 359.376 245.4 361.008L243.144 363.264C241.768 361.856 240.248 360.848 238.584 360.24C236.92 359.6 235.128 359.28 233.208 359.28C231.192 359.28 229.32 359.632 227.592 360.336C225.864 361.008 224.36 361.984 223.08 363.264C221.8 364.512 220.792 365.984 220.056 367.68C219.352 369.344 219 371.184 219 373.2C219 375.216 219.352 377.072 220.056 378.768C220.792 380.432 221.8 381.904 223.08 383.184C224.36 384.432 225.864 385.408 227.592 386.112C229.32 386.784 231.192 387.12 233.208 387.12C235.128 387.12 236.92 386.8 238.584 386.16C240.248 385.52 241.768 384.496 243.144 383.088L245.4 385.344C243.928 386.976 242.12 388.208 239.976 389.04C237.832 389.872 235.528 390.288 233.064 390.288ZM253.943 390V356.4H268.439C272.183 356.4 275.079 357.152 277.127 358.656C279.207 360.16 280.247 362.288 280.247 365.04C280.247 366.864 279.815 368.4 278.951 369.648C278.119 370.896 276.967 371.84 275.495 372.48C274.055 373.12 272.471 373.44 270.743 373.44L271.559 372.288C273.703 372.288 275.543 372.624 277.079 373.296C278.647 373.936 279.863 374.912 280.727 376.224C281.591 377.504 282.023 379.104 282.023 381.024C282.023 383.872 280.967 386.08 278.855 387.648C276.775 389.216 273.623 390 269.399 390H253.943ZM257.495 387.072H269.351C272.295 387.072 274.551 386.576 276.119 385.584C277.687 384.56 278.471 382.944 278.471 380.736C278.471 378.56 277.687 376.976 276.119 375.984C274.551 374.96 272.295 374.448 269.351 374.448H257.111V371.52H268.199C270.887 371.52 272.967 371.008 274.439 369.984C275.943 368.96 276.695 367.44 276.695 365.424C276.695 363.376 275.943 361.856 274.439 360.864C272.967 359.84 270.887 359.328 268.199 359.328H257.495V387.072ZM291.571 390V356.4H306.067C309.811 356.4 312.707 357.152 314.755 358.656C316.835 360.16 317.875 362.288 317.875 365.04C317.875 366.864 317.443 368.4 316.579 369.648C315.747 370.896 314.595 371.84 313.123 372.48C311.683 373.12 310.099 373.44 308.371 373.44L309.187 372.288C311.331 372.288 313.171 372.624 314.707 373.296C316.275 373.936 317.491 374.912 318.355 376.224C319.219 377.504 319.651 379.104 319.651 381.024C319.651 383.872 318.595 386.08 316.483 387.648C314.403 389.216 311.251 390 307.027 390H291.571ZM295.123 387.072H306.979C309.923 387.072 312.179 386.576 313.747 385.584C315.315 384.56 316.099 382.944 316.099 380.736C316.099 378.56 315.315 376.976 313.747 375.984C312.179 374.96 309.923 374.448 306.979 374.448H294.739V371.52H305.827C308.515 371.52 310.595 371.008 312.067 369.984C313.571 368.96 314.323 367.44 314.323 365.424C314.323 363.376 313.571 361.856 312.067 360.864C310.595 359.84 308.515 359.328 305.827 359.328H295.123V387.072ZM323.635 390L338.995 356.4H342.499L357.859 390H354.115L340.003 358.464H341.443L327.331 390H323.635ZM329.683 381.024L330.739 378.144H350.275L351.331 381.024H329.683Z" fill="white"/>
</g>
<defs>
<clipPath id="clip0_143_9">
<rect width="572" height="572" fill="white"/>
</clipPath>
</defs>
</svg>
